<svg width="250" height="250" viewBox="0 0 250 250" fill="none" xmlns="http://www.w3.org/2000/svg">
<g clip-path="url(#clip0_3782_2874)">
<path fill-rule="evenodd" clip-rule="evenodd" d="M187.976 230.341C187.489 229.458 187.021 228.574 186.568 227.679C183.538 221.693 181.27 215.388 178.687 206.196C178.114 204.159 179.203 202.022 181.186 201.285C191.16 197.577 199.543 197.088 209.333 197.833C216.777 198.4 223.239 192.447 220.754 185.406C216.292 172.765 206.766 161.168 193.142 153.763C196.225 133.419 193.314 117.888 178.815 101.547C119.847 88.8951 79.6522 91.7048 36.3161 121.832L33.9794 126.252C33.4027 127.9 32.8407 129.494 32.2964 131.038C18.2281 170.929 16.0155 177.203 81.0302 221.221C94.0675 230.048 114.725 234.707 134.614 231.237C138.227 234.441 142.323 237.3 146.872 239.704C158.211 245.699 170.386 247.779 181.616 246.48C189.174 245.606 191.65 237.003 187.976 230.341ZM41.3319 129.461C40.8213 130.919 40.323 132.331 39.8416 133.696L39.8409 133.698C36.2419 143.904 33.75 151.048 32.7203 157.108C31.7586 162.768 32.1888 166.91 34.2129 171.107C36.3999 175.641 40.7807 180.932 49.1876 188.072C57.5451 195.169 69.2842 203.608 85.5153 214.597C96.6859 222.16 115.207 226.502 133.239 223.356L137.037 222.694L139.922 225.252C143.056 228.031 146.626 230.525 150.61 232.632C160.531 237.876 171.083 239.645 180.697 238.533C180.917 238.508 181.038 238.465 181.091 238.442C181.143 238.42 181.169 238.401 181.187 238.386C181.215 238.363 181.349 238.24 181.474 237.891C181.753 237.109 181.78 235.673 180.971 234.204C180.44 233.242 179.928 232.274 179.431 231.292L186.568 227.679L179.431 231.292C176.075 224.663 173.641 217.811 170.985 208.36C169.285 202.309 172.517 195.973 178.398 193.786L181.186 201.285L178.398 193.786C189.764 189.561 199.377 189.052 209.94 189.856C211.44 189.97 212.548 189.392 213.033 188.893C213.249 188.671 213.285 188.532 213.289 188.515C213.292 188.503 213.297 188.479 213.295 188.43C213.292 188.381 213.279 188.264 213.21 188.069C209.42 177.331 201.243 167.272 189.321 160.792L184.391 158.112L185.232 152.564C186.675 143.04 186.624 135.222 184.819 128.127C183.19 121.724 180.018 115.462 174.51 108.813C146.633 103 123.625 100.94 102.707 103.584C81.836 106.222 62.6179 113.6 42.4699 127.309L41.3319 129.461Z" fill="#20077A"/>
<path fill-rule="evenodd" clip-rule="evenodd" d="M181.502 133.002C180.793 126.933 178.044 121.975 174.799 116.436C174.325 115.628 173.616 114.983 172.767 114.586C168.857 112.759 165.161 116.621 167.071 120.491C169.274 124.955 171.324 129.659 171.832 133.002C172.577 137.909 172.358 142.014 172.03 145.188C171.805 147.368 172.985 149.44 175.003 150.295C177.945 151.543 181.239 149.713 181.496 146.528C181.841 142.261 181.981 137.108 181.502 133.002ZM211.733 189.909C213.235 190.34 214.622 188.968 214.092 187.498C210.122 176.507 201.674 166.229 189.21 159.641C164.345 146.497 137.076 154.748 126.925 173.951C116.774 193.154 125.313 220.334 150.177 233.478C159.003 238.144 168.289 240.111 177.004 239.807C178.699 239.748 179.39 237.695 178.199 236.489C157.099 215.13 149.127 190.212 153.972 179.98C154.269 179.354 154.926 179 155.619 179C167.833 179.009 174.794 179.318 211.733 189.909ZM174.965 171.905C176.918 172.938 179.339 172.192 180.371 170.238C181.404 168.285 180.657 165.865 178.704 164.833C176.751 163.8 174.331 164.547 173.298 166.5C172.266 168.453 173.012 170.873 174.965 171.905ZM88.3769 157.027C99.5146 162.915 113.316 158.659 119.204 147.521C125.092 136.383 120.836 122.581 109.698 116.694C98.5603 110.806 84.7585 115.062 78.8709 126.2C72.9832 137.337 77.2392 151.139 88.3769 157.027ZM93.115 148.064C99.3027 151.335 106.97 148.97 110.241 142.783C113.472 136.671 111.205 129.115 105.185 125.778C105.356 127.168 105.118 128.621 104.414 129.953C102.582 133.418 98.2885 134.742 94.8234 132.91C92.5376 131.702 91.1835 129.422 91.0524 127.015C89.7629 128.06 88.6586 129.378 87.8339 130.938C84.563 137.125 86.9274 144.793 93.115 148.064Z" fill="#20077A"/>
<path fill-rule="evenodd" clip-rule="evenodd" d="M172.501 75C195.501 76 230.333 89 227.77 119.612C226.426 135.669 209.67 140.615 191.502 142.854C191.676 126.694 190.69 121.697 178.269 107.698L176.746 105.982L174.502 105.5C144.649 99.095 126.939 95.4733 102.995 98.5C78.9173 101.544 62.9378 106.008 40.4475 121.643L39.0501 122.615L35.6726 129.004L35.4991 129.5C34.9414 131.094 34.3909 132.654 33.852 134.181L33.8503 134.186L33.8496 134.188C33.6334 134.8 33.3794 135.381 33.0934 135.932C22.5252 133.417 8.54219 124.193 8.11123 115.316C7.61596 105.114 16.7699 95.6329 29.4489 91.0162L50.7496 83.6828L50.779 83.7576C53.9439 82.5142 61.3126 80.6252 71.3057 78.7359C81.2057 76.8642 93.4395 75.0367 106.196 73.8602C116.755 72.8862 127.548 72.935 137.716 72.981L137.719 72.981C139.843 72.9906 141.939 73 144.001 73C155.933 73 164.001 73.8602 172.501 75L172.501 75ZM167.269 66.8188C156 50.3831 135.22 25.9185 111.525 10.7231C83.4493 -7.28076 43.5125 13.3615 27.0535 25.9332L12.0086 17.98C10.6086 20.6285 10.3042 28.487 20.2868 38.7339C30.2694 48.9807 47.0434 46.6658 54.1826 44.2275L62.2359 54.6969L60.0035 73.9319C62.9989 73.2465 66.3656 72.5459 70.0053 71.8578C80.1053 69.9483 92.5589 68.0882 105.553 66.8898C118.536 65.6922 131.501 65.5 144.492 65.897C152.829 65.897 160.547 66.3048 167.269 66.8188ZM95.4536 16.835C96.1851 17.2971 94.9825 18.7971 94.1399 18.6004C92.0671 18.1163 89.8534 18.0928 87.6417 18.6178C80.0124 20.429 75.2959 28.082 77.1071 35.7113C78.9183 43.3406 86.5713 48.0571 94.2006 46.2459C95.9747 45.8247 97.5913 45.0877 99.0049 44.1085C99.7164 43.6157 101.395 44.5701 100.885 45.2697C98.1988 48.9592 94.2321 51.7443 89.4435 52.8811C78.7913 55.4099 68.106 48.8246 65.5771 38.1724C63.0483 27.5202 69.6336 16.8349 80.2858 14.306C85.6896 13.0232 91.1019 14.0858 95.4536 16.835ZM127.875 37.6426C128.279 35.7478 126.022 34.4428 124.582 35.7383L120.933 39.0188C120.289 39.5982 119.345 39.6967 118.595 39.263L114.348 36.807C112.67 35.8371 110.732 37.5801 111.519 39.3506L113.511 43.8341C113.863 44.6259 113.665 45.5542 113.021 46.1336L109.373 49.4141C107.932 50.7096 108.991 53.0917 110.918 52.8905L115.797 52.3809C116.659 52.2909 117.481 52.7661 117.833 53.5579L119.825 58.0414C120.612 59.8119 123.205 59.5411 123.609 57.6463L124.632 52.8478C124.813 52.0004 125.519 51.3658 126.381 51.2758L131.26 50.7662C133.187 50.565 133.731 48.0155 132.054 47.0456L127.806 44.5896C127.056 44.1559 126.671 43.2885 126.852 42.4411L127.875 37.6426Z" fill="#20077A"/>
<path d="M235.318 139.211C236.71 137.742 239.153 139.034 238.723 141.011L236.349 151.951C236.201 152.634 236.42 153.345 236.927 153.826L245.05 161.529C246.519 162.921 245.227 165.364 243.25 164.934L232.31 162.56C231.627 162.412 230.916 162.631 230.435 163.138L222.732 171.261C221.34 172.73 218.897 171.439 219.327 169.461L221.701 158.521C221.849 157.838 221.63 157.127 221.123 156.646L213 148.943C211.531 147.551 212.823 145.108 214.8 145.538L225.74 147.912C226.423 148.06 227.134 147.841 227.615 147.334L235.318 139.211Z" fill="#20077A"/>
</g>
<defs>
<clipPath id="clip0_3782_2874">
<rect width="250" height="250" fill="white"/>
</clipPath>
</defs>
</svg>
