<svg width="250" height="250" viewBox="0 0 250 250" fill="none" xmlns="http://www.w3.org/2000/svg">
<g clip-path="url(#clip0_3782_2874)">
<path fill-rule="evenodd" clip-rule="evenodd" d="M148.219 223.198L152.147 225.837C153.897 227.013 155.74 228.117 157.674 229.139C168.158 234.681 179.244 236.677 189.4 235.754C188.579 234.297 187.791 232.83 187.033 231.332C183.058 223.479 180.2 215.405 177.119 204.441C174.768 196.075 179.236 187.318 187.365 184.296C201.079 179.197 212.662 178.657 225.145 179.63C220.943 168.959 212.71 158.963 200.918 152.164L194.478 148.451L194.935 141.031C195.739 127.975 193.095 117.574 184.105 106.349C155.105 100.38 131.343 98.3495 109.856 101.066C88.4371 103.773 68.6551 111.279 47.8279 125.318L47.4339 126.064C42.4948 147.383 44.5049 161.769 51.1364 173.807C58.2919 186.796 71.6912 198.726 93.0272 213.172C105.289 221.474 125.752 226.815 143.548 223.95L148.219 223.198ZM36.1109 121.806L38.6035 117.091C84.8296 84.9549 127.705 81.9578 190.606 95.4537C203.766 110.286 207.976 124.492 206.913 141.768C222.446 150.725 233.11 164.493 237.753 179.32C239.984 186.444 233.514 192.416 226.078 191.75C213.873 190.659 203.744 191.009 191.547 195.544C189.265 196.392 188.013 198.85 188.671 201.194C191.643 211.77 194.253 219.025 197.739 225.912C198.59 227.593 199.489 229.244 200.451 230.907C204.261 237.493 201.765 246.111 194.243 247.25C180.722 249.297 165.857 247.038 152.066 239.748C149.76 238.529 147.556 237.209 145.455 235.798C124.549 239.163 101.011 233.069 86.2995 223.109C43.1324 193.882 24.3993 170.071 36.1109 121.806ZM227.326 179.788C227.326 179.789 227.319 179.792 227.304 179.794C227.318 179.789 227.326 179.787 227.326 179.788Z" fill="#20077A"/>
<path fill-rule="evenodd" clip-rule="evenodd" d="M227.913 182.808C229.415 183.239 230.816 181.87 230.3 180.395C225.811 167.559 216.023 155.519 201.492 147.838C172.883 132.714 141.509 142.208 129.829 164.302C118.15 186.397 127.974 217.669 156.583 232.792C166.955 238.276 177.88 240.519 188.093 240.048C189.787 239.969 190.477 237.914 189.28 236.713C164.556 211.931 155.261 182.832 161.025 171.085C161.331 170.463 161.987 170.111 162.68 170.112C176.892 170.12 184.803 170.432 227.913 182.808ZM102.756 158.966C102.906 160.589 104.098 162.032 105.727 161.973C115.803 161.613 124.895 154.761 127.641 144.514C131.01 131.94 123.548 119.017 110.975 115.648C98.4019 112.279 85.4782 119.74 82.1092 132.314C81.8391 133.322 81.6386 134.332 81.5047 135.339C81.2951 136.918 82.5523 138.231 84.1111 138.556C88.0896 139.385 92.0695 141.41 95.4444 144.592C99.7975 148.697 102.288 153.92 102.756 158.966Z" fill="#20077A"/>
<path fill-rule="evenodd" clip-rule="evenodd" d="M173.108 69.1172C204.136 69.1172 225.996 91.1369 225.999 104.47C226.001 115.967 220.56 118.578 204.262 126.399C202.063 127.455 199.666 128.605 197.058 129.885C195.835 118.636 193.023 113.296 181.463 102.06L179.778 100.423L177.451 100.101C146.493 95.8183 128.141 93.4597 103.928 98.3588C79.579 103.285 63.6045 109.051 41.8279 126.71L40.4748 127.808L37.5099 134.585L37.3703 135.104C36.921 136.776 36.4764 138.412 36.0412 140.013L36.0407 140.014C35.8727 140.633 35.6665 141.223 35.4279 141.788C25.1758 139.813 12.9776 130.991 11.5917 123.137C9.99169 114.07 14.987 104.47 28.1254 97.0033C35.2816 92.9363 43.4744 89.314 49.4515 86.8586L49.4574 86.8698C87.6093 73.4276 120.777 67.0352 173.05 69.0328C173.069 69.061 173.089 69.0891 173.108 69.1172ZM160.918 53.7446C147.607 38.5944 127.636 19.8246 106.006 8.11127C75.9861 -8.14545 36.7785 15.9443 20.9271 30.0213L4.96819 23.0397C3.73919 25.849 4.02234 33.894 14.987 43.5996C25.9516 53.3053 42.8996 49.6746 50.003 46.646L59.015 56.7247L58.391 71.6989C87.3296 60.5158 128.598 53.2911 160.918 53.7446Z" fill="#20077A"/>
</g>
<defs>
<clipPath id="clip0_3782_2874">
<rect width="250" height="250" fill="white"/>
</clipPath>
</defs>
</svg>
