<?xml version="1.0" encoding="UTF-8" standalone="no"?>
<!DOCTYPE svg PUBLIC "-//W3C//DTD SVG 1.1//EN" "http://www.w3.org/Graphics/SVG/1.1/DTD/svg11.dtd">
<svg width="100%" height="100%" viewBox="0 0 557 529" version="1.1" xmlns="http://www.w3.org/2000/svg" xmlns:xlink="http://www.w3.org/1999/xlink" xml:space="preserve" xmlns:serif="http://www.serif.com/" style="fill-rule:evenodd;clip-rule:evenodd;stroke-linejoin:round;stroke-miterlimit:2;">
    <path d="M195.02,523.624C183.08,523.624 182.03,523.784 178.6,526.114L174.94,528.604L174.01,526.364C171.18,519.524 170.11,499.894 171.94,488.454C172.41,485.524 172.62,482.944 172.41,482.734C172.21,482.514 168.77,483.564 164.76,485.054C141.16,493.864 130.02,496.414 120.62,495.174C114.99,494.424 112.09,493.094 106.68,488.784C104.59,487.114 102.36,485.584 101.72,485.364C100.93,485.104 101.41,483.064 103.18,479.054C108.84,466.274 111.2,443.084 109.18,420.124C107.51,401.154 108.96,379.184 113,362.124C115.39,352.024 117.06,347.144 118.97,344.624C120.43,342.704 126.06,334.604 131.47,326.624C141.42,311.954 144.54,307.584 155.36,293.124C167.63,276.724 172.94,270.624 192.47,250.554C210.88,231.634 226.67,217.344 245.99,202.134C250.11,198.884 256.51,193.564 260.21,190.304C269.93,181.744 274.76,180.764 306.99,180.784L331.49,180.804L368.99,169.684C389.61,163.564 412.11,156.794 418.99,154.634C425.87,152.484 433.29,150.284 435.49,149.754C437.69,149.224 445.27,147.174 452.33,145.194C459.39,143.214 468.17,141.154 471.83,140.624C482.11,139.144 503.51,139.464 510.99,141.224C514.57,142.064 520.41,143.354 523.99,144.104C532.24,145.814 545.08,150.064 545.12,151.094C545.17,152.314 540.25,155.324 531.19,159.614C516.69,166.474 489.8,183.154 475.99,193.844C474.61,194.904 469.97,197.954 465.67,200.614C458.13,205.274 440.32,219.194 437.07,222.954C436.2,223.964 429.19,230.334 421.49,237.124C393.44,261.844 389.96,266.374 390.03,278.124C390.05,281.114 390.05,283.124 390.98,284.504C392.9,287.324 398.71,287.514 416.54,288.114C442.6,288.994 460.3,289.384 514.99,290.284C536.16,290.624 554.35,291.214 555.4,291.594C557.01,292.174 556.29,293.024 550.9,296.844C537.17,306.584 524.58,313.454 515.49,316.164C500.29,320.694 491.72,324.274 469.7,335.294C448.15,346.064 438.19,352.564 429.87,361.284C422.44,369.054 410.09,394.184 404.56,412.744C400.69,425.744 399.46,428.874 391.51,446.054C389.58,450.224 386.34,454.374 380.58,460.054C376.07,464.494 370,470.914 367.09,474.314C364.17,477.724 359.22,482.044 356.08,483.914C352.94,485.784 336,493.124 318.43,500.214C287.66,512.654 286.21,513.134 278.8,513.264C272.91,513.364 270.99,513.054 270.56,511.944C270.25,511.144 271.35,507.324 273,503.454C274.64,499.584 275.99,495.784 275.99,495.024C275.99,493.244 273.13,493.214 271.07,494.954C267.79,497.734 247.3,510.044 242.23,512.284C235.95,515.054 228.4,517.644 216.51,521.094C209.19,523.214 205.69,523.624 195.02,523.624ZM277.497,275.955C284.432,279.488 287.631,279.897 303.027,279.19L320.654,278.372L327.404,270.767C333.986,263.329 344.009,240.086 343.99,232.258C343.99,228.624 336.752,220.662 328.787,214.462C324.893,211.43 320.825,208.819 317.344,207.342C304.682,201.949 286.366,202.191 275.191,207.881C268.33,211.358 265.727,214.277 260.725,224.095C257.378,230.678 254.142,240.235 253.566,245.348C252.525,254.441 252.692,254.832 261.041,263.273C265.745,268.015 273.146,273.723 277.497,275.955ZM366.48,311.604C367.17,312.734 371.71,312.434 380.99,310.644C393.53,308.224 398.23,307.484 406.49,306.624C417.12,305.514 431.99,302.534 431.99,301.504C431.99,299.904 425.74,299.624 410.99,300.554C402.07,301.124 394.01,301.174 391.99,300.674C384.72,298.874 378.38,296.584 375.1,294.574L371.72,292.484L372.28,284.304C373.27,269.774 376.8,263.814 395.93,244.324C405.49,234.574 410.94,229.964 418.74,224.984C428.37,218.844 430.75,216.624 427.68,216.624C425.24,216.624 403.52,228.544 393.5,235.384C388.01,239.134 382.48,243.764 381.21,245.664C379.95,247.564 374.64,253.534 369.42,258.914C364.19,264.304 360.01,269.254 360.11,269.914C360.22,270.584 360.03,271.794 359.68,272.624C358.6,275.244 355.17,289.244 354.46,293.944C354.07,296.584 354.26,299.914 354.92,301.924C356.27,306.004 362.29,311.834 364.35,311.044C365.14,310.734 366.1,310.994 366.48,311.604Z"/>
    <g transform="matrix(0.887402,0.072189,-0.072189,0.887402,50.908832,5.907912)">
        <path d="M307.731,266.732C307.099,267.755 302.543,268.591 297.597,268.591C289.453,268.591 287.761,267.773 279.114,259.666C270.152,251.243 269.613,250.22 269.631,241.537C269.669,229.748 272.699,223.835 280.788,219.781C288.728,215.802 303.268,215.56 310.446,219.279C319.724,224.077 323.536,230.733 323.536,242.132C323.536,253.753 318.07,264.873 312.342,264.873C310.427,264.873 308.363,265.709 307.731,266.732Z"/>
    </g>
    <path d="M31.77,502.114C25.82,505.284 24.19,505.274 23.39,502.064C22.48,498.444 23.75,487.274 25.95,479.624C28.66,470.214 34.79,452.584 35.82,451.264C36.3,450.634 38.62,444.954 40.97,438.624C43.32,432.294 47.26,423.114 49.71,418.204C55.1,407.444 61.99,391.704 61.99,390.154C61.99,389.544 64.75,382.534 68.12,374.584C76.53,354.774 78.6,348.354 80.52,336.094C81.78,328.014 81.9,325.224 81.01,324.144C80.36,323.374 79.2,319.994 78.42,316.654C77.64,313.304 76.1,308.794 74.99,306.634C73.89,304.474 72.99,302.064 72.99,301.284C72.99,300.504 72.31,299.304 71.49,298.624C70.67,297.944 69.99,296.474 69.99,295.354C69.99,294.164 67.13,290.594 62.99,286.624L55.99,279.914L55.99,273.784C55.99,268.384 55.51,266.864 51.89,260.894C49.63,257.174 46.36,252.544 44.61,250.624C42.86,248.704 40.66,246.194 39.73,245.064C38.79,243.934 35.14,234.704 31.61,224.564C28.08,214.424 23.59,201.854 21.63,196.624C19.67,191.394 17.4,184.644 16.58,181.624C15.75,178.604 14.39,174.214 13.54,171.884C12.7,169.544 11.1,164.374 9.99,160.384C1.98,131.574 0.01,120.124 0,102.244C-0.01,91.334 0.52,89.954 10.66,74.464C16.52,65.524 18.81,60.074 20.56,50.934C21.37,46.714 22.13,43.154 22.26,43.044C22.49,42.824 38.94,37.994 51.24,34.524C54.95,33.474 65.08,29.874 73.74,26.524C82.4,23.174 91.06,19.844 92.99,19.124C99.81,16.564 109.67,12.704 124.56,6.784C132.85,3.484 141.21,0.484 143.15,0.124C148.28,-0.836 165.89,3.754 200.99,15.234C211.24,18.584 217.63,20.084 222.8,20.374C226.81,20.604 229.96,21.184 229.8,21.664C229.63,22.154 225.44,25.334 220.49,28.734L211.49,34.924L199.99,35.764C188.28,36.614 175.91,38.844 170.47,41.084C168.2,42.024 166.62,44.034 164.1,49.224C161.11,55.364 156.96,61.574 153.25,65.454C148,70.934 150.15,75.334 163.49,86.474C168.99,91.064 176.93,97.254 181.14,100.224C188.18,105.194 189.24,105.624 194.35,105.624L199.9,105.624L228.46,131.484L236.98,132.104C241.66,132.454 249.54,133.084 254.49,133.514C262.58,134.224 263.74,134.104 265.99,132.364C267.37,131.304 271.19,129.184 274.49,127.674C277.79,126.154 284.32,122.034 288.99,118.514C300.04,110.194 312.73,101.814 321.49,97.064C330.83,91.994 339.98,86.384 350.67,79.164C369.61,66.374 404.02,50.624 413.02,50.624C418.42,50.624 420.49,53.744 419.67,60.674C418.46,70.894 400.6,100.614 369.89,143.524C360.81,156.194 356.34,161.604 353.89,162.824C350.84,164.354 345.99,165.224 345.99,164.244C345.99,161.924 350.75,154.534 359.68,143.004C365.63,135.324 372.91,125.234 375.88,120.584C378.84,115.934 382.93,109.644 384.97,106.624C392.94,94.804 399.04,84.284 402.93,75.644C407.47,65.554 407.79,64.104 405.24,65.084C404.28,65.454 400.82,66.664 397.56,67.764C391.57,69.784 366.13,83.764 355.99,90.614C352.97,92.654 347.79,95.804 344.49,97.614C338.08,101.134 329.88,107.314 318.33,117.334C314.39,120.744 306.07,127.224 299.83,131.724C272.23,151.654 245.23,175.324 215.99,205.234C190.95,230.844 170.83,253.534 153.14,276.124C147.54,283.274 141.65,290.704 140.05,292.624C134.06,299.804 118.1,325.114 109.78,340.624C107.27,345.294 103.63,351.824 101.68,355.124C99.74,358.424 95.34,366.074 91.91,372.124C88.48,378.174 84.15,385.524 82.29,388.454C80.43,391.384 76.86,398.364 74.35,403.954C71.84,409.544 68.04,417.864 65.89,422.434C63.75,427.004 61.99,431.104 61.99,431.544C61.99,431.974 59.28,437.554 55.97,443.924C52.66,450.294 50.03,455.864 50.13,456.314C50.23,456.764 49.06,459.744 47.54,462.944C44.13,470.124 43.03,476.624 45.23,476.624C49.61,476.624 80.97,452.164 93.61,438.884C97.57,434.734 97.76,434.644 98.35,436.834C98.69,438.094 98.97,441.644 98.98,444.724L98.99,450.334L92.24,456.304C79.93,467.204 71.61,474.134 59.99,483.184C45.81,494.214 42.7,496.304 31.77,502.114Z"/>
</svg>
