<svg width="250" height="250" viewBox="0 0 250 250" fill="none" xmlns="http://www.w3.org/2000/svg">
<g clip-path="url(#clip0_3765_2796)">
<path fill-rule="evenodd" clip-rule="evenodd" d="M36.3161 121.832C79.6522 91.7048 119.847 88.8951 178.815 101.547C193.314 117.888 196.225 133.419 193.142 153.763C206.766 161.168 216.292 172.765 220.754 185.406C223.239 192.447 216.777 198.4 209.333 197.833C199.543 197.088 191.16 197.577 181.186 201.285C179.203 202.022 178.114 204.159 178.687 206.196C181.27 215.388 183.538 221.693 186.568 227.679C187.021 228.574 187.489 229.458 187.976 230.341C191.65 237.003 189.174 245.606 181.616 246.48C170.386 247.779 158.211 245.699 146.872 239.704C142.323 237.3 138.227 234.441 134.614 231.237C114.725 234.707 94.0675 230.048 81.0302 221.221C16.0155 177.203 18.2281 170.929 32.2964 131.038C32.8407 129.494 33.4027 127.9 33.9794 126.252L36.3161 121.832ZM185.083 130.309C182.59 121.112 180.528 118.485 176.412 113.412C175.771 112.622 174.906 112.042 173.931 111.753C169.442 110.418 166.094 115.156 168.765 119.004C171.846 123.441 174.8 128.16 175.882 131.666C177.469 136.813 177.892 141.255 178.049 144.714C178.157 147.089 179.756 149.124 182.059 149.718C185.417 150.584 188.636 148.087 188.164 144.651C187.641 140.84 186.657 136.12 185.083 130.309ZM47.3162 132.297C39.1932 143.514 36.7882 140.338 35.7861 137.512C35.081 135.524 34.9661 130.766 37.0307 126.86C39.0954 122.954 43.9955 120.524 46.5979 119.961C49.2002 119.398 55.4391 121.08 47.3162 132.297ZM214.09 187.498C214.621 188.968 213.234 190.34 211.732 189.909C174.793 179.318 167.832 179.009 155.618 179C154.925 179 154.267 179.354 153.971 179.98C149.125 190.212 157.098 215.13 178.197 236.489C179.389 237.695 178.698 239.748 177.003 239.807C168.288 240.111 159.002 238.144 150.176 233.478C125.311 220.334 116.773 193.154 126.924 173.951C137.075 154.748 164.344 146.497 189.209 159.641C201.672 166.229 210.121 176.507 214.09 187.498ZM180.37 170.238C179.337 172.192 176.917 172.938 174.964 171.905C173.011 170.873 172.265 168.453 173.297 166.5C174.33 164.547 176.75 163.8 178.703 164.833C180.656 165.865 181.402 168.285 180.37 170.238ZM118.935 147.376C113.127 158.362 99.5137 162.56 88.5278 156.752C77.5419 150.945 73.344 137.331 79.1514 126.345C84.9588 115.359 98.5724 111.161 109.558 116.969C120.544 122.776 124.742 136.39 118.935 147.376ZM110.091 142.702C106.864 148.806 99.3013 151.138 93.198 147.911C87.0947 144.685 84.7625 137.122 87.9889 131.019C88.8023 129.48 89.8913 128.181 91.163 127.15C91.2926 129.524 92.6282 131.772 94.8826 132.964C98.3005 134.771 102.536 133.465 104.343 130.047C105.037 128.734 105.271 127.3 105.103 125.93C111.041 129.22 113.278 136.673 110.091 142.702Z" fill="#20077A"/>
<path fill-rule="evenodd" clip-rule="evenodd" d="M172.501 75C195.501 76 230.333 89 227.77 119.612C226.672 132.733 215.283 138.435 201.242 141.303C201.243 141.26 201.243 141.218 201.244 141.175C201.426 124.899 196.508 110.942 184.05 96.9014L182.527 95.1845L180.282 94.703C150.43 88.298 124.768 85.6759 100.824 88.7026C76.7464 91.7463 54.8094 100.449 32.3192 116.084L30.9217 117.056L27.5442 123.445L27.3708 123.941C26.8126 125.536 26.2616 127.097 25.7223 128.625L25.7222 128.626L25.722 128.626L25.7212 128.628L25.7212 128.629C25.2378 129.998 24.7639 131.341 24.3027 132.658C16.075 128.56 8.42818 121.844 8.11123 115.316C7.61596 105.114 16.7699 95.6329 29.4489 91.0162L50.7496 83.6828L50.779 83.7576C53.9439 82.5143 61.3126 80.6253 71.3057 78.7359C81.2057 76.8642 93.4395 75.0367 106.196 73.8602C116.755 72.8862 127.548 72.935 137.716 72.981L137.719 72.981C139.843 72.9906 141.939 73.0001 144.001 73.0001C155.933 73.0001 164.001 73.8602 172.501 75.0001L172.501 75ZM167.269 66.8188C156 50.3831 135.22 25.9185 111.525 10.7231C83.4493 -7.28076 43.5125 13.3615 27.0535 25.9332L12.0086 17.98C10.6086 20.6285 10.3042 28.487 20.2868 38.7339C30.2694 48.9807 47.0434 46.6658 54.1826 44.2275L62.2359 54.6969L60.0035 73.9319C62.9989 73.2465 66.3656 72.5459 70.0053 71.8578C80.1053 69.9483 92.5589 68.0882 105.553 66.8898C118.536 65.6923 131.501 65.5001 144.492 65.897C152.829 65.897 160.547 66.3048 167.269 66.8188ZM135.324 37.0305C135.728 35.1356 133.471 33.8307 132.03 35.1262L127.964 38.7831C127.319 39.3624 126.375 39.461 125.625 39.0273L120.89 36.2895C119.213 35.3196 117.275 37.0626 118.062 38.8331L120.283 43.831C120.635 44.6228 120.437 45.5511 119.792 46.1305L115.725 49.7874C114.285 51.0829 115.343 53.465 117.27 53.2638L122.71 52.6958C123.572 52.6058 124.394 53.0809 124.746 53.8727L126.967 58.8707C127.754 60.6411 130.346 60.3704 130.75 58.4755L131.891 53.1265C132.072 52.2791 132.778 51.6445 133.639 51.5545L139.079 50.9864C141.006 50.7852 141.55 48.2357 139.873 47.2659L135.138 44.528C134.388 44.0943 134.002 43.2269 134.183 42.3795L135.324 37.0305ZM98.6115 16.5008C99.2778 17.0525 97.7348 18.4294 96.9116 18.1636C95.8147 17.8095 94.6453 17.616 93.4312 17.611C87.096 17.5848 81.9391 22.6993 81.913 29.0344C81.8868 35.3696 87.0012 40.5264 93.3364 40.5526C94.1897 40.5561 95.0216 40.4664 95.8225 40.293C96.6682 40.1099 98.078 41.6385 97.3611 42.123C94.7866 43.8628 91.6799 44.8733 88.3384 44.8595C79.4931 44.8229 72.3521 37.6228 72.3887 28.7774C72.4252 19.9321 79.6254 12.7912 88.4707 12.8278C92.3257 12.8437 95.857 14.2203 98.6115 16.5008Z" fill="#20077A"/>
<path d="M235.318 139.211C236.71 137.742 239.153 139.034 238.723 141.011L236.349 151.951C236.201 152.634 236.42 153.345 236.927 153.826L245.05 161.529C246.519 162.921 245.227 165.364 243.25 164.934L232.31 162.56C231.627 162.412 230.916 162.631 230.435 163.138L222.732 171.261C221.34 172.73 218.897 171.439 219.327 169.461L221.701 158.521C221.849 157.838 221.63 157.127 221.123 156.646L213 148.943C211.531 147.551 212.823 145.108 214.8 145.538L225.74 147.912C226.423 148.06 227.134 147.841 227.615 147.334L235.318 139.211Z" fill="#20077A"/>
</g>
<defs>
<clipPath id="clip0_3765_2796">
<rect width="250" height="250" fill="white"/>
</clipPath>
</defs>
</svg>
