<svg width="250" height="250" viewBox="0 0 250 250" fill="none" xmlns="http://www.w3.org/2000/svg">
<g clip-path="url(#clip0_3783_2921)">
<path fill-rule="evenodd" clip-rule="evenodd" d="M206.241 169.238C249.029 184.643 240.835 202.544 231.004 220C220.584 238.5 170.498 238.5 141.497 234C112.496 229.5 53.9986 196.5 33.0036 176.5C12.0087 156.5 4.50915 127.657 10.7232 115.582C16.9373 103.507 24.5036 95.6724 43.0036 99.5C52.47 101.459 60.8889 104.293 66.8538 106.594C57.6455 125.996 59.3464 149.952 75.143 165.774C92.3738 183.033 109.302 192.864 132.17 198.356C160.612 205.188 188.702 191.145 206.823 169.73L206.241 169.238ZM197.998 164.648C197.997 163.139 198.001 161.564 198.006 159.928C198.073 135.791 198.179 98.3176 179.611 62.3698C159.259 22.9699 99.5498 20.1773 72.239 23.7059L60.206 4.54356C56.8328 6.66178 51.2561 15.5074 55.9352 33.944C60.6142 52.3805 81.4666 60.8706 91.3079 62.811L93.6176 80.2208L76.4633 109.71C68.0496 126.255 69.6689 146.138 82.2197 158.709C98.2427 174.757 113.562 183.602 134.505 188.633C157.619 194.184 181.521 183.313 197.998 164.648ZM181.978 150.571C183.276 149.132 181.974 146.873 180.079 147.275L170.295 149.345C169.447 149.525 168.581 149.138 168.148 148.387L163.155 139.722C162.188 138.044 159.638 138.583 159.434 140.51L158.38 150.455C158.288 151.316 157.653 152.021 156.805 152.201L147.021 154.271C145.126 154.673 144.851 157.265 146.62 158.054L155.753 162.13C156.544 162.483 157.018 163.305 156.926 164.167L155.872 174.112C155.668 176.038 158.049 177.101 159.346 175.662L166.045 168.236C166.625 167.593 167.553 167.396 168.345 167.749L177.477 171.825C179.246 172.614 180.992 170.679 180.025 169L175.032 160.335C174.6 159.584 174.7 158.64 175.28 157.997L181.978 150.571ZM157.975 97.427C158.241 98.2494 156.626 98.6909 156.153 97.9675C153.349 93.6825 149.074 90.3268 143.784 88.7442C131.883 85.1836 119.349 91.9449 115.789 103.846C112.228 115.747 118.989 128.281 130.89 131.842C135.508 133.223 140.221 133.051 144.468 131.627C145.288 131.353 146.285 132.702 145.566 133.183C138.049 138.211 128.429 139.97 119.089 137.176C102.472 132.204 93.0317 114.704 98.003 98.0871C102.974 81.4705 120.475 72.0302 137.092 77.0016C147.367 80.0759 154.899 87.9418 157.975 97.427Z" fill="#20077A"/>
</g>
<defs>
<clipPath id="clip0_3783_2921">
<rect width="250" height="250" fill="white"/>
</clipPath>
</defs>
</svg>
