<svg width="250" height="250" viewBox="0 0 250 250" fill="none" xmlns="http://www.w3.org/2000/svg">
<g clip-path="url(#clip0_3782_2874)">
<path fill-rule="evenodd" clip-rule="evenodd" d="M141.295 217.499L145.788 220.981C148.266 222.901 150.977 224.658 153.916 226.212C163.219 231.129 173.025 233.025 182.084 232.42C181.512 231.381 180.958 230.334 180.419 229.269L191.126 223.85C191.787 225.156 192.479 226.443 193.21 227.733C196.961 234.352 194.474 242.963 186.935 243.985C174.505 245.668 160.927 243.491 148.308 236.821C144.759 234.944 141.464 232.811 138.438 230.466C117.413 235.289 94.9056 230.616 81.0302 221.221C40.5619 193.822 23 171.5 33.9794 126.252L36.3161 121.832C79.6522 91.7049 119.847 88.8952 178.815 101.547C190.421 114.628 194.602 127.19 194.227 142.117C195.327 142.626 196.422 143.168 197.511 143.743C212.969 151.915 223.646 165.052 228.364 179.318C230.708 186.406 224.242 192.371 216.803 191.747C205.755 190.82 196.457 191.239 185.32 195.38C183.181 196.175 182.007 198.48 182.625 200.677C185.411 210.592 187.858 217.393 191.126 223.85L180.419 229.269C176.663 221.847 173.968 214.227 171.072 203.924C168.763 195.705 173.152 187.101 181.138 184.132C193.668 179.474 204.326 178.834 215.665 179.624C211.436 169.659 203.365 160.412 191.903 154.352C191.001 153.876 190.096 153.428 189.188 153.008L182.033 149.697L182.231 141.815C182.501 131.054 179.992 122.125 172.303 112.442C145.28 106.897 123.173 105.029 103.208 107.553C83.31 110.068 64.9199 117.027 45.539 130.062L45.3033 130.508C40.7305 150.314 42.6279 163.576 48.7226 174.64C55.3395 186.652 67.7713 197.753 87.7579 211.285C98.6997 218.693 117.761 222.898 135.755 218.77L141.295 217.499ZM218.015 179.774C218.016 179.775 218.008 179.778 217.992 179.782C218.007 179.775 218.015 179.773 218.015 179.774Z" fill="#20077A"/>
<path fill-rule="evenodd" clip-rule="evenodd" d="M218.231 180.568C219.733 180.999 221.127 179.629 220.605 178.157C216.363 166.202 207.216 155.005 193.672 147.846C166.853 133.668 137.44 142.568 126.49 163.281C115.541 183.994 124.751 213.311 151.571 227.489C161.206 232.582 171.348 234.694 180.847 234.302C182.541 234.232 183.231 232.178 182.036 230.975C159.045 207.828 150.382 180.727 155.707 169.703C156.008 169.079 156.666 168.727 157.359 168.727C170.615 168.736 178.073 169.047 218.231 180.568ZM100.146 157.111C100.333 158.731 101.524 160.179 103.152 160.09C111.793 159.619 119.533 153.684 121.894 144.871C124.834 133.9 118.323 122.622 107.352 119.682C96.3799 116.742 85.1023 123.253 82.1625 134.225C81.9589 134.985 81.8006 135.746 81.686 136.506C81.4485 138.081 82.7112 139.393 84.2639 139.748C87.619 140.515 90.9587 142.256 93.8052 144.94C97.497 148.421 99.6531 152.824 100.146 157.111Z" fill="#20077A"/>
<path fill-rule="evenodd" clip-rule="evenodd" d="M162.418 76.8574C191.507 76.8574 212 97.5004 212.002 110C212.004 120.778 206.904 123.226 191.625 130.558C189.564 131.547 187.317 132.626 184.873 133.825C183.727 123.279 181.09 118.274 170.253 107.741L168.674 106.206L166.492 105.904C137.47 101.889 120.265 99.678 97.5658 104.271C74.7392 108.889 59.7635 114.294 39.3484 130.85L38.0799 131.879L35.3003 138.232L35.1695 138.719C34.7481 140.286 34.3311 141.821 33.923 143.322C33.7654 143.902 33.5721 144.455 33.3483 144.985C23.7367 143.135 12.2992 134.863 10.9999 127.5C9.49986 119 14.1828 110 26.4999 103C33.2101 99.1864 40.8926 95.79 46.4964 93.4881L46.5027 93.5001C82.2682 80.8987 113.362 74.9059 162.364 76.778C162.382 76.8045 162.4 76.831 162.418 76.8574ZM150.99 62.4458C138.512 48.2428 119.789 30.6465 99.5112 19.6655C71.3683 4.42517 34.6119 27.0088 19.7516 40.2057L4.79043 33.6606C3.63827 36.2943 3.90373 43.8363 14.1828 52.9352C24.4619 62.034 40.3504 58.6303 47.0097 55.7911L55.4582 65.2396L54.8732 79.2794C82.0014 68.795 120.69 62.0214 150.99 62.4458Z" fill="#20077A"/>
</g>
<defs>
<clipPath id="clip0_3782_2874">
<rect width="250" height="250" fill="white"/>
</clipPath>
</defs>
</svg>
